<?xml version="1.0" encoding="utf-8"?>
<!-- Generator: Adobe Illustrator 23.0.2, SVG Export Plug-In . SVG Version: 6.00 Build 0)  -->
<svg version="1.1" id="Layer_1" xmlns="http://www.w3.org/2000/svg" xmlns:xlink="http://www.w3.org/1999/xlink" x="0px" y="0px"
	 viewBox="0 0 640 480" style="enable-background:new 0 0 640 480;" xml:space="preserve">
<style type="text/css">
	.st0{fill:#385369;stroke:#000000;stroke-width:2;}
	.st1{fill:#385369;stroke:#000000;stroke-width:2.235;}
	.st2{fill:#385369;stroke:#000000;stroke-width:2.772;}
</style>
<g>
	<g>
		<path class="st0" d="M75.1,219l38.4-38.4l206.7,206.7l206.6-206.6l38.2,38.2L320,463.9L75.1,219L75.1,219z"/>
		<path class="st0" d="M96.9,238.4l14.6-14.6"/>
		<path class="st0" d="M117.2,258.8l14.6-14.6"/>
		<path class="st0" d="M137.6,279.1l14.6-14.6"/>
		<path class="st0" d="M158,299.5l14.6-14.6"/>
		<path class="st0" d="M178.4,319.9l14.6-14.6"/>
		<path class="st0" d="M198.8,340.3l14.6-14.6"/>
		<path class="st0" d="M219.2,360.7l14.6-14.6"/>
		<path class="st0" d="M239.6,381.1l14.6-14.6"/>
		<path class="st0" d="M260,401.5l14.6-14.6"/>
		<path class="st0" d="M280.4,421.9l14.6-14.6"/>
		<path class="st0" d="M300.8,442.3l14.6-14.6"/>
		<path class="st0" d="M106.9,248.5l7.3-7.3"/>
		<path class="st0" d="M127.3,268.9l7.3-7.3"/>
		<path class="st0" d="M147.7,289.4l7.3-7.3"/>
		<path class="st0" d="M168.1,309.8l7.3-7.3"/>
		<path class="st0" d="M188.6,330.2l7.3-7.3"/>
		<path class="st0" d="M209,350.6l7.3-7.3"/>
		<path class="st0" d="M229.4,371l7.3-7.3"/>
		<path class="st0" d="M249.8,391.4l7.3-7.3"/>
		<path class="st0" d="M270.2,411.9l7.3-7.3"/>
		<path class="st0" d="M290.6,432.3l7.3-7.3"/>
		<path class="st0" d="M311.1,452.7l7.3-7.3"/>
		<path class="st0" d="M86.5,228.1l7.3-7.3"/>
		<path class="st0" d="M543.1,238.9l-14.6-14.6"/>
		<path class="st0" d="M522.7,259.3l-14.6-14.6"/>
		<path class="st0" d="M502.3,279.7l-14.6-14.6"/>
		<path class="st0" d="M481.9,300.1l-14.6-14.6"/>
		<path class="st0" d="M461.5,320.5l-14.6-14.6"/>
		<path class="st0" d="M441.1,340.9l-14.6-14.6"/>
		<path class="st0" d="M420.7,361.3l-14.6-14.6"/>
		<path class="st0" d="M400.3,381.7l-14.6-14.6"/>
		<path class="st0" d="M379.9,402.1l-14.6-14.6"/>
		<path class="st0" d="M359.5,422.5L345,407.9"/>
		<path class="st0" d="M339.1,442.9l-14.6-14.6"/>
		<path class="st0" d="M533.1,249.1l-7.3-7.3"/>
		<path class="st0" d="M512.7,269.5l-7.3-7.3"/>
		<path class="st0" d="M492.2,289.9l-7.3-7.3"/>
		<path class="st0" d="M471.8,310.3l-7.3-7.3"/>
		<path class="st0" d="M451.4,330.8l-7.3-7.3"/>
		<path class="st0" d="M431,351.2l-7.3-7.3"/>
		<path class="st0" d="M410.6,371.6l-7.3-7.3"/>
		<path class="st0" d="M390.1,392l-7.3-7.3"/>
		<path class="st0" d="M369.7,412.4l-7.3-7.3"/>
		<path class="st0" d="M349.3,432.8l-7.3-7.3"/>
		<path class="st0" d="M328.9,453.3l-7.3-7.3"/>
		<path class="st0" d="M553.5,228.7l-7.3-7.3"/>
	</g>
	<g>
		<path class="st0" d="M335.6,16.1L290.7,42l71.4,123.7C414,167.5,446,278.8,488,335.4c18.3-12.6,23.3,16.5,68.3,63L335.6,16.1
			L335.6,16.1z"/>
		<path class="st0" d="M304.5,16.1L349.3,42l-71.4,123.7C226,167.5,194,278.8,152,335.4c-18.3-12.6-23.3,16.5-68.3,63L304.5,16.1
			L304.5,16.1z"/>
	</g>
	<path class="st1" d="M360.2,35.2c0,22.9-18.6,41.5-41.5,41.5s-41.5-18.6-41.5-41.5"/>
	<path class="st2" d="M352.2,35.2c0,18.5-15,33.4-33.4,33.4c-18.5,0-33.4-15-33.4-33.4c0,0,0,0,0,0"/>
</g>
</svg>
