<?xml version="1.0" encoding="utf-8"?>
<!-- Generator: Adobe Illustrator 23.0.2, SVG Export Plug-In . SVG Version: 6.00 Build 0)  -->
<svg version="1.1" id="Layer_1" xmlns="http://www.w3.org/2000/svg" xmlns:xlink="http://www.w3.org/1999/xlink" x="0px" y="0px"
	 viewBox="0 0 300 300" style="enable-background:new 0 0 300 300;" xml:space="preserve">
<style type="text/css">
	.st0{fill:#F7931E;}
</style>
<path class="st0" d="M88.9,50.1h122c2.2,0,4,1.8,4,3.9v192c0,2.2-1.8,3.9-4,3.9h-122c-2.2,0-4-1.8-4-3.9V54
	C84.9,51.9,86.7,50.1,88.9,50.1z M146.9,227h6.1c2.2,0,4,1.8,4,4.1v0.1c0,2.2-1.8,3.9-4,3.9h-6.1c-2.2,0-4-1.8-4-3.9v-0.1
	C142.8,228.8,144.6,227,146.9,227z M206.9,81.2H93v131h114v-131H206.9z M93,73.2h114V58.1H93V73.2z M206.9,220.2H93V242h114v-21.8
	H206.9z"/>
</svg>
