<?xml version="1.0" encoding="utf-8"?>
<!-- Generator: Adobe Illustrator 23.0.2, SVG Export Plug-In . SVG Version: 6.00 Build 0)  -->
<svg version="1.1" id="Layer_1" xmlns="http://www.w3.org/2000/svg" xmlns:xlink="http://www.w3.org/1999/xlink" x="0px" y="0px"
	 viewBox="0 0 593 800" style="enable-background:new 0 0 593 800;" xml:space="preserve">
<style type="text/css">
	.st0{fill:#F7931E;}
</style>
<g transform="translate(0 -252.36)">
	<path color-rendering="auto" shape-rendering="auto" image-rendering="auto" class="st0" d="M296.5,252.4
		C132.8,252.3,0,385.1,0,548.8c0,163.8,296.5,503.5,296.5,503.5S593,712.6,593,548.8C593,385.1,460.3,252.4,296.5,252.4L296.5,252.4
		z M296.5,271.3c153.3,0,277.5,124.3,277.5,277.5c0,153.3-277.5,472.8-277.5,472.8S19,702.1,19,548.8
		C19,395.6,143.2,271.3,296.5,271.3L296.5,271.3z M296.5,412.3c-75.4,0-136.5,61.1-136.5,136.5c0,0,0,0,0,0
		c0,75.4,61.1,136.5,136.5,136.5c0,0,0,0,0.1,0c75.4,0,136.5-61.1,136.5-136.5c0,0,0,0,0,0C433,473.5,371.9,412.3,296.5,412.3z
		 M296.5,426.3c67.7,0,122.5,54.9,122.6,122.6c0,67.7-54.9,122.6-122.5,122.6c-67.7,0-122.6-54.9-122.6-122.6c0,0,0,0,0,0
		C173.9,481.1,228.8,426.3,296.5,426.3L296.5,426.3z"/>
</g>
</svg>
