<?xml version="1.0" encoding="utf-8"?>
<!-- Generator: Adobe Illustrator 23.0.2, SVG Export Plug-In . SVG Version: 6.00 Build 0)  -->
<svg version="1.1" id="Layer_1" xmlns="http://www.w3.org/2000/svg" xmlns:xlink="http://www.w3.org/1999/xlink" x="0px" y="0px"
	 viewBox="0 0 640 480" style="enable-background:new 0 0 640 480;" xml:space="preserve">
<style type="text/css">
	.st0{fill:#F7931E;stroke:#000000;stroke-width:4;}
</style>
<g>
	<path class="st0" d="M281.1,8.8c-18.5,1.6-34.3,18-37.4,40.1L240.3,74c-0.7,1.2-1.4,2.3-2,3.6l-65.7,141
		c-2.7,5.7-4.2,11.7-4.8,17.5h-35.6c-23.3,0-42.2,18.6-42.2,41.9v133c0,23.3,18.9,42.2,42.2,42.2H194c14.2,12.8,32.8,20.6,53.5,20.6
		h84.3c44.3,0,79.8-35.5,79.8-79.8V256.9c0-44.3-35.5-79.8-79.8-79.8h-26.1l16.1-116.9c3.5-25.2-11-48-32.6-51.2
		C286.5,8.6,283.7,8.5,281.1,8.8L281.1,8.8L281.1,8.8z"/>
	<g>
		<path class="st0" d="M494.5,210.7v5.2c0,18.6-15,33.6-33.6,33.6H347.1c-18.6,0-33.6-15-33.6-33.6v-5.2c0-18.6,15-33.6,33.6-33.6
			h113.8C479.4,177.1,494.5,192.1,494.5,210.7z"/>
		<path class="st0" d="M522.4,287.7L522.4,287.7c0,20-16.2,36.2-36.2,36.2H349.7c-20,0-36.2-16.2-36.2-36.2v0
			c0-20,16.2-36.2,36.2-36.2h136.5C506.1,251.5,522.4,267.7,522.4,287.7z"/>
		<path class="st0" d="M499.2,362.1L499.2,362.1c0,20-16.2,36.2-36.2,36.2H349.7c-20,0-36.2-16.2-36.2-36.2v0
			c0-20,16.2-36.2,36.2-36.2H463C483,326,499.2,342.2,499.2,362.1z"/>
		<path class="st0" d="M474.5,436.6L474.5,436.6c0,20-16.2,36.2-36.2,36.2h-88.7c-20,0-36.2-16.2-36.2-36.2v0
			c0-20,16.2-36.2,36.2-36.2h88.7C458.3,400.4,474.5,416.6,474.5,436.6z"/>
	</g>
</g>
</svg>
