<?xml version="1.0" encoding="utf-8"?>
<!-- Generator: Adobe Illustrator 23.0.2, SVG Export Plug-In . SVG Version: 6.00 Build 0)  -->
<svg version="1.1" id="Layer_1" xmlns="http://www.w3.org/2000/svg" xmlns:xlink="http://www.w3.org/1999/xlink" x="0px" y="0px"
	 viewBox="0 0 500 500" style="enable-background:new 0 0 500 500;" xml:space="preserve">
<style type="text/css">
	.st0{stroke:#FFFFFF;stroke-width:0.6597;stroke-linecap:round;stroke-linejoin:round;}
	.st1{fill:#4D4D4D;}
	.st2{fill:#CCCCCC;stroke:#000000;stroke-width:0.7066;stroke-linecap:round;stroke-linejoin:round;}
	.st3{fill-rule:evenodd;clip-rule:evenodd;fill:#333333;stroke:#FFFFFF;stroke-width:0.6206;}
	.st4{fill:#385369;stroke:#000000;stroke-width:1.7665;stroke-linecap:round;stroke-linejoin:round;}
	.st5{fill:#385369;}
	.st6{fill:#385369;stroke:#000000;stroke-width:0.8328;stroke-linecap:round;stroke-linejoin:round;}
	.st7{fill:#C87137;stroke:#000000;stroke-width:1.5;stroke-linecap:round;stroke-linejoin:round;}
</style>
<g transform="translate(0 -552.36)" shape-rendering="auto">
	<circle image-rendering="auto" color-rendering="auto" class="st0" cx="390.5" cy="866.6" r="48.3"/>
	<circle image-rendering="auto" color-rendering="auto" class="st1" cx="390.5" cy="866.6" r="42.6"/>
	<circle image-rendering="auto" color-rendering="auto" class="st2" cx="390.5" cy="866.6" r="25.8"/>
	<circle image-rendering="auto" color-rendering="auto" cx="390.5" cy="866.6" r="6.2"/>
	<path image-rendering="auto" color-rendering="auto" class="st3" d="M174.8,820.2l-10,1.5l10,72.9l0.2,0.5
		c3.1,9.4,10.3,15.7,18.5,15.8c8.3,0.1,16.6-5,24.2-14l0.1-0.1l43-56.8l-7.9-6.6L210,889.9c-6.4,7.5-12.5,10.4-16.4,10.4
		c-3.9,0-6.8-2-9-8.2L174.8,820.2z"/>
	<path image-rendering="auto" color-rendering="auto" class="st4" d="M440.4,739l-78.6,84.9c-9.9,10.7-23.5,15.1-39.4,12.8
		l-140.8-19.9c-15.9-2.2-21.7-14.6-24.4-28.1l-10-49.7L440.4,739z"/>
	<path image-rendering="auto" color-rendering="auto" class="st5" d="M418.5,749.1c-85.7,0-171.4,0-257.1,0
		c2.6,12.9,5.2,25.8,7.8,38.8c1,4.8,2.4,9.1,4.5,12.5c1.4,2.2,3.1,3.9,4.8,4.9c0,0,0,0,0.1,0c1.3,0.7,3.2,1.3,5.3,1.6
		c0.1,0,0.2,0,0.3,0c51.4,6.6,89.3,13.2,140.7,19.8c5.6,0.7,10.9,0.5,15.4-0.8c0,0,0,0,0,0c3.4-0.9,6.6-2.6,8.9-4.7
		c0,0,0.1,0,0.1-0.1c1.1-1,2.2-2.3,3.4-3.9c0,0,0.1-0.1,0.1-0.1L418.5,749.1z"/>
	<path image-rendering="auto" color-rendering="auto" class="st6" d="M147.5,729.3h293c3.7,0,6.7,3,6.7,6.7v0.3c0,3.7-3,6.7-6.7,6.7
		h-293c-3.7,0-6.7-3-6.7-6.7V736C140.8,732.3,143.8,729.3,147.5,729.3z"/>
	<path image-rendering="auto" color-rendering="auto" class="st5" d="M438.5,732.5c-33.1,0.7-66.3,0.1-99.4,0.3
		c-64.3,0.2-128.5-0.6-192.8,0.6c-4.8,2.1,0.4,8,4.2,6.2c58.4-0.6,117,0,175.5-0.1c38.5,0,77-0.1,115.5-0.6
		C446.1,737.3,442.4,731.4,438.5,732.5L438.5,732.5z"/>
	<path image-rendering="auto" color-rendering="auto" class="st7" d="M59.5,794.5l67.9,11l21.8,1.5l305.5,49.7l-2.5,15.3L146,822.3
		l-20.7-5.5L58,805.8c-4.2-0.7-8.1-2.6-7.4-6.9C51.3,794.6,55.3,793.8,59.5,794.5L59.5,794.5z"/>
</g>
</svg>
