<?xml version="1.0" encoding="utf-8"?>
<!-- Generator: Adobe Illustrator 23.0.2, SVG Export Plug-In . SVG Version: 6.00 Build 0)  -->
<svg version="1.1" id="Layer_1" xmlns="http://www.w3.org/2000/svg" xmlns:xlink="http://www.w3.org/1999/xlink" x="0px" y="0px"
	 viewBox="0 0 109.6 110.1" style="enable-background:new 0 0 109.6 110.1;" xml:space="preserve">
<style type="text/css">
	.st0{opacity:0.478;filter:url(#e);enable-background:new    ;}
	.st1{fill:#B3B3B3;}
	.st2{fill:#E6E6E6;}
	.st3{opacity:0.4785;fill:#666666;enable-background:new    ;}
	
		.st4{opacity:0.7026;fill:url(#SVGID_1_);stroke:url(#SVGID_2_);stroke-width:0.2454;stroke-opacity:0.602;enable-background:new    ;}
	.st5{fill:#A7A7A7;stroke:#666666;stroke-width:0.3009;}
	.st6{fill:#E6E6E6;stroke:#666666;stroke-width:0.2705;}
	.st7{fill:#E6E6E6;stroke:#666666;stroke-width:0.3009;}
	.st8{fill:#A7A7A7;stroke:#666666;stroke-width:0.2705;}
	.st9{fill:#E6E6E6;stroke:#666666;stroke-width:0.411;}
	.st10{fill:#A7A7A7;stroke:#666666;stroke-width:0.411;}
	.st11{fill:#A7A7A7;stroke:#666666;stroke-width:0.5;}
	.st12{fill:#E6E6E6;stroke:#666666;stroke-width:0.4495;}
	.st13{fill:#E6E6E6;stroke:#666666;stroke-width:0.5;}
	.st14{fill:#F7931E;stroke:#666666;stroke-width:0.3466;}
	.st15{fill:#666666;stroke:#666666;stroke-width:0.3466;}
	.st16{fill:#666666;stroke:#666666;stroke-width:0.5;}
	.st17{fill:none;stroke:#F7931E;}
</style>
<filter  id="e">
	<feGaussianBlur  stdDeviation="2"></feGaussianBlur>
</filter>
<g transform="translate(401.98 -1359.4)">
	<g transform="translate(370.77 183.46)">
		<g transform="translate(-.83182)">
			<g class="st0">
				<path class="st1" d="M-745.7,1181.3h57.2c11.8,0,21.4,9.6,21.4,21.4l0,0v57.2c0,11.8-9.6,21.4-21.4,21.4l0,0h-57.2
					c-11.8,0-21.4-9.6-21.4-21.4l0,0v-57.2C-767.1,1190.9-757.5,1181.3-745.7,1181.3L-745.7,1181.3"/>
			</g>
			<path class="st2" d="M-748.3,1178.6h57.2c11.8,0,21.4,9.6,21.4,21.4l0,0v57.2c0,11.8-9.6,21.4-21.4,21.4l0,0h-57.2
				c-11.8,0-21.4-9.6-21.4-21.4l0,0V1200C-769.6,1188.2-760.1,1178.6-748.3,1178.6L-748.3,1178.6"/>
		</g>
		<path class="st3" d="M-671.3,1264c-23.9-26.5-70-25.8-98.3-0.5l-0.1,0.1c1.7,7.5,10.2,14.4,17.6,14.4h64.3
			C-685.8,1278-673.6,1273.7-671.3,1264L-671.3,1264z"/>
	</g>
	
		<linearGradient id="SVGID_1_" gradientUnits="userSpaceOnUse" x1="-751.547" y1="95.8" x2="-751.547" y2="79.6" gradientTransform="matrix(1 0 0 -1 401.98 1471.4)">
		<stop  offset="0" style="stop-color:#FFFFFF;stop-opacity:0"/>
		<stop  offset="1" style="stop-color:#FFFFFF"/>
	</linearGradient>
	
		<linearGradient id="SVGID_2_" gradientUnits="userSpaceOnUse" x1="-751.547" y1="95.8" x2="-751.547" y2="79.6" gradientTransform="matrix(1 0 0 -1 401.98 1471.4)">
		<stop  offset="0" style="stop-color:#FFFFFF;stop-opacity:0"/>
		<stop  offset="0.6039" style="stop-color:#FFFFFF"/>
		<stop  offset="1" style="stop-color:#FFFFFF"/>
	</linearGradient>
	<path class="st4" d="M-386.2,1359.6h73.2c6.4,0,11.6,5.2,11.6,11.6v9.6c-29.4-5.6-84.8,22.7-96.4,0v-9.6
		C-397.7,1364.8-392.6,1359.6-386.2,1359.6L-386.2,1359.6z"/>
	<g transform="translate(-307.19 -104.67)">
		<path class="st5" d="M-66.5,1498.6l0.1,4.9l7.4,1.7l-0.1-3.3L-66.5,1498.6L-66.5,1498.6z"/>
		<path class="st6" d="M-66.5,1498.3l0.3,4.2l-7.5,2.7l0.1-3.3L-66.5,1498.3L-66.5,1498.3z"/>
		<path class="st7" d="M-16.6,1498.6l-0.1,4.9l-7.4,1.7l0.1-3.3L-16.6,1498.6L-16.6,1498.6z"/>
		<path class="st8" d="M-16.6,1498.4l-0.3,4.2l7.5,2.7l-0.1-3.3L-16.6,1498.4L-16.6,1498.4z"/>
		<path class="st9" d="M-14.7,1502.1l-4.2,42.5l-11.6-3.4l2.6-34.8L-14.7,1502.1L-14.7,1502.1z"/>
		<path class="st10" d="M-14.7,1502l-4.2,42.5l13.5-1.1l3.8-34.7L-14.7,1502L-14.7,1502z"/>
		<path class="st11" d="M-39.1,1487.4l-0.1,9.2l10.1-0.7l-0.1-5.5L-39.1,1487.4L-39.1,1487.4z"/>
		<path class="st12" d="M-39.2,1487.3l0.2,9.2l-14.6-0.7l0.2-5.5L-39.2,1487.3L-39.2,1487.3z"/>
		<path class="st10" d="M-68.4,1502l4.2,42.5l11.6-3.4l-2.6-34.8L-68.4,1502L-68.4,1502z"/>
		<path class="st13" d="M-42.5,1556.4l-0.5-63l-17.4,3.4l-0.9,51.6L-42.5,1556.4L-42.5,1556.4z"/>
		<path class="st11" d="M-42.3,1557l-0.6-63.6l19.7,3.4l0.9,51.6L-42.3,1557L-42.3,1557z"/>
		<path class="st9" d="M-68.4,1502l4.2,42.5l-13.5-1.1l-3.8-34.7L-68.4,1502L-68.4,1502z"/>
		<path class="st14" d="M-45.6,1498.9v8.3h-13.3v-7L-45.6,1498.9L-45.6,1498.9z"/>
		<path class="st14" d="M-66.2,1541.1l-0.6-6l-9.7,0.9l0.5,5.1L-66.2,1541.1L-66.2,1541.1z"/>
		<path class="st14" d="M-45.6,1510.7v8.3l-13.3-1.3v-7.4L-45.6,1510.7z"/>
		<path class="st14" d="M-67.1,1532.5l-0.6-6l-9.6,1.9l0.5,5.3L-67.1,1532.5L-67.1,1532.5z"/>
		<path class="st14" d="M-46.2,1523.1v9.3l-12.6-2.4v-8L-46.2,1523.1L-46.2,1523.1z"/>
		<path class="st14" d="M-68.4,1523.6l-0.7-6.7l-9,2.6l0.6,5.8L-68.4,1523.6L-68.4,1523.6z"/>
		<path class="st14" d="M-46.2,1536.5v9.5l-12.5-3.5l0.1-9L-46.2,1536.5L-46.2,1536.5z"/>
		<path class="st14" d="M-69.3,1513.9l-0.7-6.9l-8.8,3.4l0.7,6.5L-69.3,1513.9L-69.3,1513.9z"/>
		<path class="st15" d="M-16.8,1541.2l0.6-6l9.7,0.9l-0.5,5.1L-16.8,1541.2L-16.8,1541.2z"/>
		<path class="st15" d="M-16,1532.6l0.6-6l9.6,1.9l-0.5,5.3L-16,1532.6L-16,1532.6z"/>
		<path class="st15" d="M-14.4,1523.6l0.7-6.7l9,2.6l-0.6,5.8C-5.3,1525.3-14.4,1523.6-14.4,1523.6z"/>
		<path class="st15" d="M-13.8,1514l0.7-6.9l8.8,3.4l-0.7,6.5L-13.8,1514L-13.8,1514z"/>
		<path class="st16" d="M-40.2,1499.4v8.3h14.7v-7L-40.2,1499.4z"/>
		<path class="st16" d="M-40.2,1511.2v8.3l14.7-1.3v-7.4L-40.2,1511.2z"/>
		<path class="st16" d="M-39.5,1523.6v9.3l13.9-2.4v-8L-39.5,1523.6L-39.5,1523.6z"/>
		<path class="st16" d="M-39.5,1536.9v9.5l13.8-3.5l-0.1-9L-39.5,1536.9L-39.5,1536.9z"/>
	</g>
	<g transform="translate(369.95 183.04)">
		<path class="st17" d="M-748.3,1178.6h57.2c11.8,0,21.4,9.6,21.4,21.4l0,0v57.2c0,11.8-9.6,21.4-21.4,21.4l0,0h-57.2
			c-11.8,0-21.4-9.6-21.4-21.4l0,0V1200C-769.6,1188.2-760.1,1178.6-748.3,1178.6L-748.3,1178.6"/>
	</g>
</g>
</svg>
