<?xml version="1.0" encoding="utf-8"?>
<!-- Generator: Adobe Illustrator 23.0.2, SVG Export Plug-In . SVG Version: 6.00 Build 0)  -->
<svg version="1.1" id="Layer_1" xmlns="http://www.w3.org/2000/svg" xmlns:xlink="http://www.w3.org/1999/xlink" x="0px" y="0px"
	 viewBox="0 0 416.3 404" style="enable-background:new 0 0 416.3 404;" xml:space="preserve">
<style type="text/css">
	.st0{opacity:0.5;filter:url(#d);}
	.st1{fill-rule:evenodd;clip-rule:evenodd;}
	.st2{opacity:0.5;filter:url(#e);enable-background:new    ;}
	.st3{opacity:0.5;filter:url(#f);}
	.st4{fill-rule:evenodd;clip-rule:evenodd;fill:#F7931E;}
	.st5{fill-rule:evenodd;clip-rule:evenodd;fill:#F7B11E;}
	.st6{fill-rule:evenodd;clip-rule:evenodd;fill:#A1A1A1;}
	.st7{fill-rule:evenodd;clip-rule:evenodd;fill:#E0E0E0;}
	.st8{fill-rule:evenodd;clip-rule:evenodd;fill:#616161;}
</style>
<filter  height="1.2433" id="f" width="1.3037" x="-.15183" y="-.12167">
	<feGaussianBlur  stdDeviation="3.324078"></feGaussianBlur>
</filter>
<filter  id="e">
	<feGaussianBlur  stdDeviation="3.324078"></feGaussianBlur>
</filter>
<filter  height="1.1527" id="d" width="1.4121" x="-.20603" y="-.076347">
	<feGaussianBlur  stdDeviation="3.324078"></feGaussianBlur>
</filter>
<g class="st0">
	<path class="st1" d="M181.9,240.4c-2.9-2.2-5.1-3.9-6.8-5.1c-1.8-1.3-2.2-1.6-3.3-2.1c-1.2-0.6-2.2-1.3-3.4-1.4
		c-1.2-0.3-2.4-0.1-3.4,0.3c-1.1,0.4-1.9,1.3-2.8,2.5l-15,20.2c-0.4,0.6-1,1.3-1.6,2.2c-0.7,0.8-1.6,1.7-2,2.8
		c-0.4,1-0.5,1.8-0.3,3.1c0.1,1.1,0.6,2.4,1.2,3.7c0.5,1.2,1.3,2.4,2.2,3.6l21.5,37c0.6,1,1.4,2,2,3.2c0.5,1.1,1.3,2.6,1.8,3.7
		c0.4,1,1.1,1.9,1.1,2.8c0,0.8-0.6,1.5-1,2.3c-0.5,0.9-1.2,1.7-1.8,2.7c-4.9,5.6-7.8,9.5-8.8,11.8c-1,2.3,0.7,3.2,2.7,1.7
		c1.9-1.6,4.6-5.5,8.5-11.4c0.9-1.1,1.5-2.1,2.2-3c0.6-1,1.1-1.6,1.4-2.4c0.1-0.8,0-1.7-0.2-2.6c-0.2-0.9-0.6-1.8-1-2.8
		c-0.5-1-1.1-2.1-1.7-3.1c-0.7-1.2-1.4-2.4-2.3-3.8l-22.8-38.7c-1.1-1.8-1.8-3.1-2.2-4.1c-0.3-1.1-0.2-1.5,0-2
		c0.1-0.6,0.6-1.1,1-1.5c0.3-0.5,0.8-1.1,1.2-1.5c0.4-0.6,0.9-1.2,1.4-1.8l13.6-18.3c0.4-0.8,1.1-1.3,1.7-1.9c0.6-0.6,1.2-1.3,2-1.4
		c0.7-0.1,1.4,0,2.2,0.4c0.7,0.1,1.4,0.8,2.1,1.2c0.6,0.4,1.2,0.8,1.7,1.3l7.6,5.7L181.9,240.4L181.9,240.4z"/>
</g>
<g class="st2">
	<path class="st1" d="M185.4,227.5c-2-1.5-4.8-1.1-6.2,0.9c-4.6,6.2-9.2,12.3-13.8,18.4c-1.5,2-1.1,4.8,0.9,6.3
		c29.4,21.9,58.9,43.8,88.3,65.8c2,1.5,4.8,1,6.3-0.9c4.6-6.1,9.1-12.3,13.7-18.4c1.5-2,1.1-4.8-0.9-6.3
		C244.3,271.3,214.9,249.4,185.4,227.5L185.4,227.5z"/>
</g>
<g class="st3">
	<path class="st1" d="M163,332.9c-0.4-0.5-0.9-0.6-1.5-0.7c-0.7-0.1-1.7-0.1-2.3,0.3c-0.8,0.3-0.9,0.8-1.8,2.1
		c-1,1.4-2.2,3.5-3.7,6.2c-4.6,4.6-8.9,9.4-13,14.1c-4.1,4.7-7.1,8.5-11.4,14.5c-4.4,5.9-9.4,12.7-15,20.7c0.5,1.1,1,2,1.7,2.8
		c0.6,0.8,1.3,1.4,1.9,1.9l0.9,0.7c0.7,0.5,1.4,0.9,2.4,1.3c0.9,0.3,2,0.6,3.2,0.8c6.1-7.7,11.1-14.4,15.6-20.3
		c4.4-6,7.1-9.9,10.6-15.1c3.5-5.4,6.6-10.7,9.8-16.5c2.2-2.3,3.9-4.1,4.9-5.3s1.3-1.7,1.5-2.4c0.1-0.9-0.2-1.7-0.4-2.3
		c-0.3-0.6-0.6-1-1.1-1.2L163,332.9z"/>
</g>
<g>
	<path class="st4" d="M22.8,30.8c7.2-1.5,16.5-2.7,28-3.7c11.6-1.1,33.7-2.9,41-2.5c7.2,0.3,1.7,1.8,2.1,4.6
		c0.4,2.8,0.5,6.8,0.4,12.1c5-0.4,12.3,0.1,22.6,1.7c10.3,1.6,22.6,4,38.1,7.5c0.6-6.8,1.7-14,3.3-21.8c1.6-7.8,3.7-15.9,6.3-24.7
		c-0.8,0,5.1,0.5,18,1.7c13,1.1,42.9,3.2,59,5c15.9,1.7,27.7,3.5,36,5.4L277,29.5c3.8-0.3,8.3,0.8,13.8,3c5.4,2.1,11.7,5.5,18.8,10
		c8.9-9.9,15.8-16.8,21-20.5c5-3.9,3.5-5.6,9.6-2.1c6.2,3.6,18.2,14.8,27.6,23c9.4,8.2,20.3,18.3,28.5,26c8,7.7,16.7,14.4,19.7,19.7
		c2.8,5.2,0.7,5.3-2.5,11.3c-3.4,5.9-11.4,16.6-17.2,23.9c-5.8,7.3-9.2,19.8-17.2,19.3c-8.1-0.8-23-18.5-31-23.5
		c-8.2-5-17.5-12.9-16.8-6.3c0.9,6.7,18.4,34.3,21.8,45.6c3.2,11.1,1.4,12.9-2.1,21c-3.6,7.9-7.2,9.8-19.3,26.8
		c-12.2,17.1-41.5,58.6-52.8,74.6c-11.3,15.7-9.6,15.8-14.7,19.3c-5.3,3.3-3.9,7.5-16.3,0.4c-12.6-7.3-31.9-21.6-58.6-43.6
		l-58.6-2.5c-2.2,12-4,21.1-5,27.6c-1.1,6.5,4.7,10.3-1.7,11.3c-6.7,0.9-27.8-4.1-37.3-5.9c-9.5-1.9-10.2-2.6-18.9-5
		c-8.9-2.5-26.7-4.6-33.1-9.6c-6.4-5.1-7.8-11.8-4.6-20.5c-4.2,1.4-7.2,0.6-9.2-2.5c-2-3.1-0.7-3.5-2.5-15.9
		c-2-12.8-6.2-41.1-8.8-59.5c-2.7-18.5-4.8-37-6.3-49.4C2,113.2,1.2,105.2,1,101.6c-0.1-0.9,1.8-2.2,5.9-3.7s9.9-3.4,18-5.5
		c-2.2-13.9-3.5-25.6-3.8-36C20.8,46,21.2,37.6,22.8,30.8z"/>
	<g>
		<path class="st5" d="M23.5,31.2c3.4-0.6,7.4-1.4,12.6-2c5.1-0.7,15.6-2.1,18-1.9c2.1,0.1-3.8,1.6-5,2.5c-1.2,0.7,1,1.4-1.7,2.2
			c-2.8,0.8-11.8,1-14.3,2.7c-2.4,1.7,0,5.5-0.5,7.3c-0.7,1.7-1.4,0.6-3.2,2.7c-1.9,2.1-4.4,5.5-7.7,10c0-5.1,0.2-9.6,0.5-13.5
			C22.5,37.2,22.9,34,23.5,31.2z"/>
		<path class="st5" d="M94.4,42.6c-0.4,1.7-0.6,6.1-0.3,13.9c0.3,7.8,0.7,18.3,1.7,32.3c1.8-5.3,3.2-10,4.4-14.3
			c1.2-4.4,2.5-8.9,2.5-11.6c-0.2-2.8-3.9-3.3-3.4-4.7c0.5-1.3,5.7-1.4,6.5-3.3c0.7-2.1-4.8-7.3-1.6-8.5c3.2-1.2,16,1.7,20.7,1.8
			c4.6,0,6.8-0.5,6.8-1.7c-4.9-1.3-10.2-2.3-16.5-2.9C108.9,43.1,102.1,42.7,94.4,42.6z"/>
		<path class="st5" d="M22.6,93.9c-4.2,1-8.1,2-11.6,3.3c-3.6,1.3-6.6,2.6-9.4,4.2c0.9,7.6,1.8,15.9,3,25.5
			c1.1,9.5,2.9,24.4,3.9,31.2c0.9,6.7,0.2,7.3,1.4,9.3c1.3,1.9,5.1,4.1,5.6,2.3c0.3-2-4.6-11.1-3.9-13.4c0.6-2.2,8.2,3.6,7.8,0
			c-0.4-3.9-10.5-18.5-10-22.8c0.5-4.3,12.9,0.9,12.6-3c-0.6-4.2-14.9-16.5-15.2-21.2c-0.4-4.6,10.5-4.2,13.3-6.6
			C22.7,99.9,23.5,97.2,22.6,93.9z"/>
		<path class="st5" d="M221.6,9.6c-7.9-0.5-16.4-1.2-25.7-1.9c-9.3-0.7-19.2-1.7-29.9-2.5c-2.5,8.5-4.5,16.4-6.1,24
			c-1.5,7.5-2.7,11.5-3.3,21.3c-0.8,9.8-1.3,22-1.5,37.2c5.4-7.6,8.7-14.4,10-20.4c1.2-6.2-3.5-12.4-2.3-16.1
			c1.1-3.7,7.4-1.3,9.6-6.3c2.2-5.1-1.5-20.2,3.5-24c5.1-4,20.4,1.3,26.1,0.4c5.5-1,3.6-3.9,6.9-5.8
			C212.4,13.5,216.4,11.6,221.6,9.6L221.6,9.6z"/>
		<path class="st5" d="M276.6,32.8c-1.1,5.6-2.4,13.9-4,25.3c-1.6,11.4-3.4,25.4-5.4,42.6c2.9-10.3,5.3-17.8,7.5-23
			c2.1-5.3,5.1-3.5,5.6-7.7c0.5-4.4-3.5-13.4-2.7-17.5c0.7-4.1,5.7-4.4,6.9-6.9c1-2.8-2.4-8.1,0-9c2.4-0.9,7.2,0.4,14.6,3.7
			c-1.8-2.1-4.6-3.7-8.4-5C286.9,34,282.4,33.2,276.6,32.8L276.6,32.8z"/>
		<path class="st5" d="M305.8,49.3c6.7-8.1,12.5-14.3,17.8-19.2c5.3-5,9.6-8.2,13.4-10c11.4,8.9,21.9,17.6,32.4,26.5
			c10.3,8.9,19.9,17.6,29.3,26.5c-16.1-11.1-26.7-17.1-32.4-18.2c-5.6-1.2,3.2,12-1,11.5c-4.4-0.6-18.9-14.4-25.1-15
			c-6.1-0.7-5.8,11.6-11.5,11.3C322.9,62.2,315.3,57.9,305.8,49.3z"/>
	</g>
</g>
<path class="st6" d="M180.8,233.7c-2.9-2.2-5.1-3.9-6.8-5.1c-1.8-1.3-2.2-1.6-3.3-2.1c-1.2-0.6-2.2-1.3-3.4-1.4
	c-1.2-0.3-2.4-0.1-3.4,0.3c-1.1,0.4-1.9,1.3-2.8,2.5L146,248c-0.4,0.6-1,1.3-1.6,2.2c-0.7,0.8-1.6,1.7-2,2.8c-0.4,1-0.5,1.8-0.3,3.1
	c0.1,1.1,0.6,2.4,1.2,3.7c0.5,1.2,1.3,2.4,2.2,3.6l21.5,37c0.6,1,1.4,2,2,3.2c0.5,1.1,1.3,2.6,1.8,3.7c0.4,1,1.1,1.9,1.1,2.8
	c0,0.8-0.6,1.5-1,2.3c-0.5,0.9-1.2,1.7-1.8,2.7c-4.9,5.6-7.8,9.5-8.8,11.8c-1,2.3,0.7,3.2,2.7,1.7c1.9-1.6,4.6-5.5,8.5-11.4
	c0.9-1.1,1.5-2.1,2.2-3c0.6-1,1.1-1.6,1.4-2.4c0.1-0.8,0-1.7-0.2-2.6c-0.2-0.9-0.6-1.8-1-2.8c-0.5-1-1.1-2.1-1.7-3.1
	c-0.7-1.2-1.4-2.4-2.3-3.8L147,260.9c-1.1-1.8-1.8-3.1-2.2-4.1c-0.3-1.1-0.2-1.5,0-2c0.1-0.6,0.6-1.1,1-1.5c0.3-0.5,0.8-1.1,1.2-1.5
	c0.4-0.6,0.9-1.2,1.4-1.8l13.6-18.3c0.4-0.8,1.1-1.3,1.7-1.9c0.6-0.6,1.2-1.3,2-1.4c0.7-0.1,1.4,0,2.2,0.4c0.7,0.1,1.4,0.8,2.1,1.2
	c0.6,0.4,1.2,0.8,1.7,1.3l7.6,5.7L180.8,233.7L180.8,233.7z"/>
<g>
	<g>
		<path class="st7" d="M174.9,229.9l-0.3,1.1c-0.8-0.8-1.8-1.4-2.8-2.1c-1.1-0.8-2.3-1.4-3.3-1.9c-1.1-0.5-2.1-0.7-2.9-0.6
			c-0.9-0.1-1.5,0.4-2.1,0.9c-0.6,0.4-1.3,1.1-1.9,1.9l-16.7,22.5c-0.6,0.5-0.9,1.3-1.2,2c-0.4,0.7-0.5,1.4-0.3,2.4
			c0,0.9,0.2,1.8,0.8,3.2c0.5,1.3,1.4,3,2.5,4.9c-1.1-1.5-2-3-2.7-4.2c-0.7-1.3-1.3-2.5-1.4-3.6c-0.4-1.1-0.2-1.7,0.3-3
			c0.5-1.3,1.6-2.8,3.1-4.7l15-20.1c0.4-0.7,1-1.3,1.6-1.8s1.3-1.1,2.1-1.3c0.7-0.3,1.4-0.5,2.4-0.2c0.9,0.2,2.3,0.8,3.7,1.6
			C172,227.8,173.4,228.6,174.9,229.9L174.9,229.9z"/>
		<path class="st7" d="M166,227.3c-0.3-0.1-0.6-0.1-1.1,0.1c-0.6,0.3-1.1,0.6-1.6,1.2c-0.5,0.4-1,0.9-1.4,1.4l-15.8,21.2
			c-0.8,0.8-1.2,1.6-1.6,2.3c-0.4,0.6-0.6,1-0.6,1.7c-0.1,0.6-0.2,0.9,0.3,2.2c0.5,1.2,1.4,3,2.7,5.4l25.1,42.7
			c0.5,0.9,0.9,2,1.3,2.8c0.3,0.8,0.4,1.8,0.5,2.5c0,0.6-0.2,1-0.5,1.7c-0.3,0.6-0.9,1.3-1.6,2.2l-9.5,12.7l0.8,0.4l10.3-13.9
			c0.5-0.6,0.9-1.4,1.1-1.9c0.2-0.6,0.2-0.9,0.1-1.5c-0.1-0.8-0.5-1.9-0.7-2.7c-0.3-0.9-0.6-1.6-1-2.2l-26.8-45.4
			c-0.6-0.9-1-1.6-1.3-2.3c-0.4-0.8-0.6-1.4-0.6-2.1c-0.1-0.7,0-1.1,0.5-1.9c0.5-0.9,1.2-2,2.3-3.2l15.3-20.5
			c0.4-0.5,0.7-0.8,1.1-1.2c0.4-0.5,0.8-0.7,1.2-1C165.2,227.7,165.6,227.5,166,227.3L166,227.3z"/>
		<path class="st7" d="M167.8,300c1.6,2.9,2.8,5.2,3.7,6.9c0.7,1.7,0.9,2.2,1,3.1c0,0.7-0.2,1.2-0.4,1.7c-0.3,0.5-0.5,0.9-0.9,1.4
			l-9.9,13.4l0.8,0.6l9.8-13.1c0.4-0.5,0.7-0.9,0.9-1.6c0.3-0.6,0.5-1.3,0.5-2.2c-0.2-0.9-0.3-1.8-1.2-3.4
			C171.1,305.1,169.7,302.8,167.8,300L167.8,300z"/>
	</g>
	<path class="st6" d="M184.2,220.8c-2-1.5-4.8-1.1-6.2,0.9c-4.6,6.2-9.2,12.3-13.8,18.4c-1.5,2-1.1,4.8,0.9,6.3
		c29.4,21.9,58.9,43.8,88.3,65.8c2,1.5,4.8,1,6.3-0.9c4.6-6.1,9.1-12.3,13.7-18.4c1.5-2,1.1-4.8-0.9-6.3
		C243.1,264.6,213.7,242.7,184.2,220.8L184.2,220.8z"/>
</g>
<path class="st1" d="M161.9,326.2c-0.4-0.5-0.9-0.6-1.5-0.7c-0.7-0.1-1.7-0.1-2.3,0.3c-0.8,0.3-0.9,0.8-1.8,2.1
	c-1,1.4-2.2,3.5-3.7,6.2c-4.6,4.6-8.9,9.4-13,14.1c-4.1,4.7-7.1,8.5-11.4,14.5c-4.4,5.9-9.4,12.7-15,20.7c0.5,1.1,1,2,1.7,2.8
	c0.6,0.8,1.3,1.4,1.9,1.9l0.9,0.7c0.7,0.5,1.4,0.9,2.4,1.3c0.9,0.3,2,0.6,3.2,0.8c6.1-7.7,11.1-14.4,15.6-20.3
	c4.4-6,7.1-9.9,10.6-15.1c3.5-5.4,6.6-10.7,9.8-16.5c2.2-2.3,3.9-4.1,4.9-5.3s1.3-1.7,1.5-2.4c0.1-0.9-0.2-1.7-0.4-2.3
	c-0.3-0.6-0.6-1-1.1-1.2L161.9,326.2z"/>
<g>
	<path class="st8" d="M116.2,382.3c1.2-3.2,6.4-10.3,10.1-15.3c3.7-5.2,7.6-10.8,11.2-15c3.5-4.2,6.4-7.2,9.4-9.9
		c2.8-2.8,6.7-6.5,7.6-6.6c0.8-0.1,0.1,1.8-2.4,6s-8.5,12.8-12.6,18.9c-4.2,5.9-9.1,12.6-12.5,16.9c-3.5,4.2-6,7.4-7.8,8.4
		C117.3,386.4,115.1,385.3,116.2,382.3z"/>
	<path class="st8" d="M155.5,333.4c-0.4-0.3,1-3.1,1.9-4.1c0.8-1.2,2.7-2.8,3.1-2.5c0.3,0.2-0.4,2.5-1.2,3.7
		C158.5,331.5,155.8,333.6,155.5,333.4L155.5,333.4z"/>
</g>
<path class="st4" d="M184.3,221.7c-2-1.4-4.7-1.1-6.1,0.8c-4.4,5.8-8.7,11.7-13.1,17.5c-1.4,1.9-0.9,4.6,1,6
	c29.2,21.7,58.3,43.5,87.5,65.2c1.9,1.4,4.7,1.1,6.1-0.8c4.4-5.8,8.7-11.7,13.1-17.5c1.4-1.9,0.9-4.6-1-6
	C242.6,265.2,213.4,243.5,184.3,221.7L184.3,221.7z"/>
<path class="st5" d="M272.1,290.2c0,2-0.7,2.8-2.4,2.5c-1.8-0.5-7.2-5.2-7.8-4.7c-0.7,0.5,5.3,6.6,4.2,7.7c-1.2,1-9-0.4-10.7-1.2
	c-1.7-0.9,2.4-1.8,0.8-4c-1.7-2.3-9.5-7.5-10.5-9.4c-0.9-2.1,4.9-0.9,4.6-2.5c-0.6-1.7-5.3-5.6-7.5-6.9c-2.3-1.3-3-0.3-5.6-1.2
	c-2.7-1.2-7.6-4.7-10-5c-2.6-0.3-1.5,4.5-4.7,3c-3.3-1.5-12.2-9.9-14.5-12.4c-2.2-2.6,3.7-0.3,1.3-2.8c-2.7-2.5-14.1-9.5-16.9-12.1
	c-2.7-2.7,1.9-1.7,0.6-3.3c-1.5-1.8-7.5-5.1-9.4-7c-2-1.8-1.7-2.7-2.3-3.9c-0.7-1.3-1.4-2.8-1.6-3.6c-0.2-0.9,0.1-1.2,0.9-1.2
	c0.9-1.2,3.2-0.9,5.1,0.6c28.1,20.9,56.1,41.8,84.2,62.7C272,286.9,272.9,289.1,272.1,290.2z"/>
</svg>
