<?xml version="1.0" encoding="utf-8"?>
<!-- Generator: Adobe Illustrator 23.0.2, SVG Export Plug-In . SVG Version: 6.00 Build 0)  -->
<svg version="1.1" id="Layer_1" xmlns="http://www.w3.org/2000/svg" xmlns:xlink="http://www.w3.org/1999/xlink" x="0px" y="0px"
	 viewBox="0 0 300 300" style="enable-background:new 0 0 300 300;" xml:space="preserve">
<style type="text/css">
	.st0{fill:#FFFFFF;stroke:#000000;stroke-miterlimit:10;}
	.st1{fill:#F7931E;}
	.st2{font-family:'ArialMT';}
	.st3{font-size:12px;}
	.st4{fill:#020101;}
</style>
<path class="st0" d="M179.6,18.1"/>
<path class="st1" d="M171.3,107l32.1,31c3,2.9,2.6,7.8-0.7,10.4c-10.5,7.8-31.6,23.2-43.7,33.1c-4.4,3.5-3.5,10.4,1.6,12.8
	c16.1,7.6,84.4,59.6,101,71.2c7.2,5,17.5,6.9,12.3,0c-4.9-6.4-60-63.1-63.3-67.2c-2.6-3.5-1.9-8.3,1.6-10.7
	c10.2-7.3,30.5-21.8,49.1-34.7c3.2-2.3,3.9-6.6,1.6-9.7c-26.1-34.8-95.2-95-117-113.5c-3.7-3.1-9.1-2.3-11.6,1.7
	c-4.6,7.5-11.9,20.1-21.7,38.1C100.3,92,90.7,110.6,88,116.3c-7,15.6,3.7,13.7,8.8,6.9c4.6-6.1,33.9-38.5,36.8-41.8
	c3-3.1,7.9-3.3,11.1-0.3l16.8,16.3c0.9,0.9,2.3,0.2,2.3-0.9V88c0-0.7,0.5-1.4,1.4-1.4h4c0.7,0,1.2,0.5,1.2,1.2l0.5,18
	C170.9,106.5,171.1,106.8,171.3,107z"/>
<text class="st2 st3"> </text>
<rect x="129.6" y="109.5" class="st1" width="7" height="6.9"/>
<rect x="139.3" y="109.5" class="st1" width="7" height="6.9"/>
<rect x="129.6" y="100.6" class="st1" width="7" height="6.9"/>
<rect x="139.3" y="100.6" class="st1" width="7" height="6.9"/>
<path class="st4" d="M86.4,143.7c-2.8-22.4-46.9,69.8-56.4,109.2c-8.1,33.9,96.7-40.4,111.3-64.5c1-1.7,1.6-3.7,1.6-5.6
	C142.6,156.7,97.5,232.5,86.4,143.7z"/>
<g>
	<path d="M214.8,193.9l7.4-7c0.1-0.1,0.2-0.2,0.2-0.4s0-0.3-0.1-0.5l0.2-0.2l4.6,4.9c1,1.1,1.7,2,2,2.8c0.4,1.2,0.4,2.3,0,3.5
		c-0.3,0.9-0.9,1.8-1.8,2.6c-1.5,1.4-3.1,2-4.7,1.9c-0.7-0.1-1.4-0.3-2-0.7s-1.3-1-2.1-1.8l-4.6-4.9l0.2-0.2
		c0.2,0.1,0.3,0.2,0.5,0.2C214.6,194.1,214.7,194,214.8,193.9z M217.4,195l2.3,2.4c0.7,0.8,1.4,1.2,1.9,1.4c1.2,0.4,2.5,0,3.8-1.2
		c0.9-0.9,1.4-1.8,1.5-2.7c0-0.5,0-1-0.3-1.5c-0.2-0.5-0.6-1-1.1-1.6l-2.3-2.4L217.4,195z"/>
	<path d="M229.8,205.2l-2.3,2.2c-0.1,0.1-0.2,0.3-0.2,0.4c0,0.1,0,0.3,0.1,0.5l-0.2,0.2l-2.4-2.5l0.2-0.2c0.2,0.1,0.3,0.2,0.5,0.2
		c0.1,0,0.3-0.1,0.4-0.2l5.8-5.6c0.1-0.1,0.2-0.3,0.2-0.4c0-0.1,0-0.3-0.1-0.5l0.2-0.2l4.5,4.7c0.6,0.6,1,1.1,1.2,1.5
		s0.4,0.8,0.5,1.2c0.2,0.8-0.1,1.6-0.9,2.3c-0.6,0.6-1.2,0.8-1.8,0.8s-1.3-0.3-2.2-0.9l-0.6,3.1c-0.1,0.6-0.2,1-0.1,1.3
		c0,0.3,0.1,0.5,0.2,0.7l-0.2,0.2l-2.9-3l0.2-0.2c0.3,0.2,0.5,0.2,0.6,0.1c0.1-0.1,0.2-0.3,0.2-0.6l0.7-3.4L229.8,205.2z
		 M231.1,203.9l2.5,2.6c0.4,0.4,0.7,0.6,1,0.7c0.4,0.2,0.7,0.1,1.1-0.3c0.3-0.3,0.4-0.6,0.4-0.9c-0.1-0.3-0.3-0.7-0.8-1.2l-2.5-2.6
		L231.1,203.9z"/>
	<path d="M239.5,215l-1.7,1.7l4.3,4.5c0.1,0.1,0.3,0.2,0.4,0.2c0.1,0,0.3,0,0.5-0.1l0.2,0.2l-2.1,2l-0.2-0.2
		c0.1-0.2,0.2-0.3,0.2-0.5c0-0.1-0.1-0.3-0.2-0.4l-6.3-6.6l0.2-0.2c0.2,0.1,0.3,0.2,0.5,0.2c0.1,0,0.3-0.1,0.4-0.2l5.8-5.6
		c0.1-0.1,0.2-0.3,0.2-0.4c0-0.1,0-0.3-0.1-0.5l0.2-0.2l6.1,6.4c0.1,0.1,0.3,0.2,0.4,0.2c0.1,0,0.3,0,0.5-0.1l0.2,0.2l-2.1,2
		l-0.2-0.2c0.1-0.2,0.2-0.3,0.2-0.5c0-0.1-0.1-0.3-0.2-0.4l-4.1-4.3l-1.6,1.5l2.6,2.7c0.1,0.1,0.3,0.2,0.4,0.2c0.1,0,0.3,0,0.5-0.1
		l0.2,0.2l-2.1,2l-0.2-0.2c0.1-0.2,0.2-0.3,0.2-0.5c0-0.1-0.1-0.3-0.2-0.4L239.5,215z"/>
	<path d="M246.6,226l3.8,4c0.1,0.1,0.3,0.2,0.4,0.2c0.1,0,0.3,0,0.5-0.1l0.2,0.2l-2.1,2l-0.2-0.2c0.1-0.2,0.2-0.3,0.2-0.5
		c0-0.1-0.1-0.3-0.2-0.4l-5.8-6.1l0.2-0.2c0.2,0.1,0.3,0.2,0.5,0.2c0.1,0,0.3-0.1,0.4-0.2l5.8-5.6c0.1-0.1,0.2-0.3,0.2-0.4
		c0-0.1,0-0.3-0.1-0.5l0.2-0.2l2.4,2.5l-0.2,0.2c-0.2-0.1-0.3-0.2-0.5-0.2c-0.1,0-0.3,0.1-0.4,0.2L246.6,226z"/>
	<path d="M262.5,230.7c1.1,1.1,1.7,2.4,1.8,3.7c0.2,1.6-0.4,2.9-1.6,4.1c-1.2,1.1-2.5,1.5-4.1,1.3c-1.3-0.2-2.5-0.9-3.6-2
		s-1.7-2.4-1.8-3.6c-0.2-1.6,0.4-2.9,1.6-4.1c1.2-1.2,2.6-1.6,4.2-1.3C260.2,228.9,261.4,229.5,262.5,230.7z M261.1,231.9
		c-0.7-0.7-1.5-1.1-2.4-1.1c-0.8,0-1.6,0.3-2.3,0.9c-0.7,0.6-1,1.4-1,2.2c0,0.9,0.3,1.7,1,2.5c0.7,0.7,1.5,1.1,2.4,1.1
		c0.8,0,1.6-0.3,2.2-0.9c0.7-0.7,1.1-1.4,1.1-2.3C262.2,233.5,261.8,232.7,261.1,231.9z"/>
	<path d="M267.7,241.4l-4.1,3.8c-0.1,0.1-0.2,0.3-0.2,0.4c0,0.1,0,0.3,0.1,0.5l-0.2,0.2l-2.2-2.4l0.2-0.2c0.2,0.1,0.3,0.2,0.5,0.2
		c0.1,0,0.3-0.1,0.4-0.2l5.9-5.5c0.1-0.1,0.2-0.2,0.2-0.4s0-0.3-0.1-0.5l0.2-0.2l2.6,2.8l-0.2,0.2c-0.2-0.1-0.4-0.2-0.5,0
		c-0.1,0.1-0.2,0.3-0.2,0.5l-0.2,7.4l4-3.7c0.1-0.1,0.2-0.3,0.2-0.4c0-0.1,0-0.3-0.1-0.5l0.2-0.2l2.2,2.4l-0.2,0.2
		c-0.2-0.1-0.3-0.2-0.5-0.2c-0.1,0-0.3,0.1-0.4,0.2l-5.9,5.5c-0.1,0.1-0.2,0.2-0.2,0.4c0,0.1,0,0.3,0.1,0.5l-0.2,0.2l-2.4-2.6
		l0.2-0.2c0.2,0.2,0.4,0.2,0.5,0.1c0.1-0.1,0.1-0.1,0.1-0.3c0-0.1,0-0.3,0-0.7L267.7,241.4z"/>
	<path d="M278,258.5l-3-3.4l-1.1,0.3c-0.3,0.1-0.5,0.2-0.6,0.3c-0.2,0.2-0.2,0.4,0,0.8l-0.2,0.2l-2.4-2.7l0.2-0.2
		c0.2,0.1,0.3,0.2,0.5,0.2s0.4,0,0.7-0.1l7.9-2c0.3-0.1,0.5-0.2,0.7-0.3c0.2-0.2,0.2-0.4,0.1-0.7l0.2-0.2l2.5,2.9l-0.2,0.2
		c-0.3-0.2-0.6-0.2-0.8,0c-0.1,0.1-0.3,0.3-0.4,0.6l-2.9,7.4c-0.2,0.4-0.2,0.7-0.2,0.9c0,0.2,0,0.3,0.2,0.6l-0.2,0.2l-2.6-3l0.2-0.2
		c0.3,0.2,0.6,0.3,0.8,0.1c0.1-0.1,0.3-0.3,0.4-0.6L278,258.5z M278.5,257l1.3-3.3l-3.4,0.9L278.5,257z"/>
</g>
</svg>
