<?xml version="1.0" encoding="utf-8"?>
<!-- Generator: Adobe Illustrator 23.0.2, SVG Export Plug-In . SVG Version: 6.00 Build 0)  -->
<svg version="1.1" id="Layer_1" xmlns="http://www.w3.org/2000/svg" xmlns:xlink="http://www.w3.org/1999/xlink" x="0px" y="0px"
	 viewBox="0 0 24 38" style="enable-background:new 0 0 24 38;" xml:space="preserve">
<style type="text/css">
	.st0{fill:none;}
	.st1{fill-rule:evenodd;clip-rule:evenodd;fill:#FFFFFF;}
	.st2{fill-rule:evenodd;clip-rule:evenodd;fill:#F7931E;}
	.st3{fill-rule:evenodd;clip-rule:evenodd;}
</style>
<g>
	<g>
		<path class="st0" d="M2.2,32l10,5V12l-10-5C2.2,7,2.2,32,2.2,32z"/>
		<path class="st0" d="M12.2,37l10-5V7l-10,5C12.2,12,12.2,37,12.2,37z"/>
	</g>
	<path class="st1" d="M2.2,7l10-5l10,5l-10,5L2.2,7z"/>
	<path class="st2" d="M2.4,7.4l10-4.9l10,4.9l-10,4.9C12.4,12.4,2.4,7.4,2.4,7.4z"/>
	<path class="st3" d="M12.2,1.4L12,1.5l-10,5L1.7,6.6v25.6L2,32.4l10,5l0.2,0.1l0.2-0.1l10-5l0.3-0.1V6.6l-0.3-0.1l-10-5
		C12.4,1.5,12.2,1.4,12.2,1.4z M12.2,2.5l9.5,4.8v24.4l-9.5,4.8l-9.5-4.8V7.3C2.7,7.3,12.2,2.5,12.2,2.5z"/>
	<path class="st3" d="M5.2,28.6v5.1l0.3,0.1l4,2l0.7,0.4v-5.1L9.9,31l-4-2C5.9,29,5.2,28.6,5.2,28.6z M6.2,30.3l3,1.5v2.9l-3-1.5
		C6.2,33.1,6.2,30.3,6.2,30.3z"/>
	<path class="st3" d="M15.7,24.1L15,24.5l-2,1l-0.3,0.1v4.1l0.7-0.4l2-1l0.3-0.1V24.1z M14.7,25.8v1.9l-1,0.5v-1.9L14.7,25.8z"/>
	<path class="st3" d="M15.7,18.1L15,18.5l-2,1l-0.3,0.1v4.1l0.7-0.4l2-1l0.3-0.1V18.1z M14.7,19.8v1.9l-1,0.5v-1.9L14.7,19.8z"/>
	<path class="st3" d="M15.7,12.1L15,12.5l-2,1l-0.3,0.1v4.1l0.7-0.4l2-1l0.3-0.1C15.7,16.3,15.7,12.1,15.7,12.1z M14.7,13.8v1.9
		l-1,0.5v-1.9C13.7,14.3,14.7,13.8,14.7,13.8z"/>
	<path class="st3" d="M20.7,21.6L20,22l-2,1l-0.3,0.1v4.1l0.7-0.4l2-1l0.3-0.1V21.6z M19.7,23.3v1.9l-1,0.5v-1.9L19.7,23.3z"/>
	<path class="st3" d="M20.7,15.6L20,16l-2,1l-0.3,0.1v4.1l0.7-0.4l2-1l0.3-0.1C20.7,19.8,20.7,15.6,20.7,15.6z M19.7,17.3v1.9
		l-1,0.5v-1.9L19.7,17.3z"/>
	<path class="st3" d="M20.7,9.6L20,10l-2,1l-0.3,0.1v4.1l0.7-0.4l2-1l0.3-0.1V9.6z M19.7,11.3v1.9l-1,0.5v-1.9L19.7,11.3z"/>
	<path class="st2" d="M8.7,24.1v4.1L9,28.4l2,1l0.7,0.4v-4.1l-0.3-0.1l-2-1L8.7,24.1z M9.7,25.8l1,0.5v1.9l-1-0.5V25.8z"/>
	<path class="st2" d="M8.7,18.1v4.1L9,22.4l2,1l0.7,0.4v-4.1l-0.3-0.1l-2-1L8.7,18.1z M9.7,19.8l1,0.5v1.9l-1-0.5V19.8z"/>
	<path class="st2" d="M8.7,12.1v4.1L9,16.4l2,1l0.7,0.4v-4.1l-0.3-0.1l-2-1C9.4,12.5,8.7,12.1,8.7,12.1z M9.7,13.8l1,0.5v1.9l-1-0.5
		C9.7,15.6,9.7,13.8,9.7,13.8z"/>
	<path class="st2" d="M3.7,21.6v4.1L4,25.9l2,1l0.7,0.4v-4.1L6.4,23l-2-1L3.7,21.6z M4.7,23.3l1,0.5v1.9l-1-0.5V23.3z"/>
	<path class="st2" d="M3.7,15.6v4.1L4,19.9l2,1l0.7,0.4v-4.1L6.4,17l-2-1C4.4,16,3.7,15.6,3.7,15.6z M4.7,17.3l1,0.5v1.9l-1-0.5
		V17.3z"/>
	<path class="st2" d="M3.7,9.6v4.1L4,13.9l2,1l0.7,0.4v-4.1L6.4,11l-2-1L3.7,9.6z M4.7,11.3l1,0.5v1.9l-1-0.5V11.3z"/>
</g>
</svg>
