<?xml version="1.0" encoding="utf-8"?>
<!-- Generator: Adobe Illustrator 23.0.2, SVG Export Plug-In . SVG Version: 6.00 Build 0)  -->
<svg version="1.1" id="Layer_1" xmlns="http://www.w3.org/2000/svg" xmlns:xlink="http://www.w3.org/1999/xlink" x="0px" y="0px"
	 viewBox="0 0 1458 1282.1" style="enable-background:new 0 0 1458 1282.1;" xml:space="preserve">
<style type="text/css">
	.st0{fill:#385369;}
	.st1{fill:#FFFFFF;}
</style>
<path class="st0" d="M861.4,875.5H615.2V1282H79.4V710.5c2,0,4,0,5.9,0c427.5,0,854.9,0,1282.4-0.1c4.7,0,6.2,1.1,6.2,6
	c-0.1,186.8-0.1,373.6-0.1,560.5c0,1.6-0.1,3.3-0.2,5.2H861.4C861.4,1146.7,861.4,1011.3,861.4,875.5L861.4,875.5z M518.7,779.4
	H352.3v98.8h166.4V779.4z M1111.6,878.3H1278v-98.9h-166.3V878.3z M518.7,898.2H352.4v98.9h166.3V898.2z M1278.1,997.2v-98.9h-166.4
	v98.9H1278.1z M332.6,779.4H181.9v98.9h150.8V779.4z M181.7,997.1h150.8v-98.9H181.7L181.7,997.1L181.7,997.1z M1091.9,878.4v-99
	H941.5v99H1091.9z M1092.1,898.2H941.5V997h150.6V898.2z"/>
<path class="st0" d="M1458,681H0c0.7-1.8,1.2-3.4,1.9-4.8c62.8-146.4,125.6-292.8,188.2-439.3c1.7-3.9,3.8-4.9,7.8-4.9
	c71.7,0.1,143.3,0,215,0.3c5.8,0,9.8-1.8,14.1-5C524.7,152.5,622.6,77.8,720.5,3.2c1.3-1,2.7-2,4.3-3.2
	c11.6,8.7,23.2,17.4,34.8,26.1c89.7,67.3,179.3,134.6,268.9,202c3.6,2.7,7.2,4,11.8,4c73.2-0.1,146.3,0,219.5-0.2
	c4.6,0,6.6,1.4,8.4,5.6c62.5,146,125.1,291.9,187.7,437.9C1456.6,677,1457.2,678.7,1458,681L1458,681z M713.8,539V388.1H507.5V539
	H713.8z M741.5,538.9h206.4V388H741.5L741.5,538.9L741.5,538.9z M724.8,2.5c-1.3,1-2.1,1.5-2.9,2.1c-55.5,42.3-111,84.7-166.5,127
	c-53.3,40.6-106.5,81.3-159.8,121.8c-2.9,2.2-4.3,4.4-4.2,8.3c0.3,10,0.1,20,0.1,30c0,3.8,0,7.5,0,11.3c0.5,0.4,1.1,0.8,1.6,1.2
	c113.1-80,221.9-165.7,333.8-247.5c1.4,1,2.7,2,4.1,3c69.3,52.6,138.5,105.2,207.9,157.6c38.8,29.3,78,58.2,117,87.2
	c1.4,1,2.9,1.9,5.1,3.3c0-16.2-0.2-31.3,0.1-46.4c0.1-4.6-1.2-7.5-5-10.3c-95-71.1-189.8-142.4-284.7-213.6
	C755.8,25.8,740.4,14.2,724.8,2.5L724.8,2.5z M713.9,274.9H507.6v98.6h206.3V274.9z M947.8,373.5v-98.6H741.6v98.6H947.8z
	 M418.2,591.4h612.6c0.1-1.1,0.2-1.7,0.2-2.4c0-98.7,0-197.3,0-296c0-1.1,0.2-2.8-0.5-3.3c-4.4-3.6-8.9-7-14.4-11.2V573H431.1V280.2
	c-2.4,1.6-4,2.9-5.7,3.7c-6,2.6-7.3,7.1-7.3,13.5c0.2,96.2,0.2,192.3,0.2,288.5C418.2,587.5,418.2,589.1,418.2,591.4L418.2,591.4z"
	/>
<path class="st1" d="M518.7,779.4v98.8H352.3v-98.8H518.7z"/>
<path class="st1" d="M1111.6,878.3v-98.9h166.3v98.9H1111.6L1111.6,878.3z"/>
<path class="st1" d="M518.7,898.2v98.9H352.4v-98.9H518.7z"/>
<path class="st1" d="M1278.1,997.2h-166.4v-98.9h166.4V997.2z"/>
<path class="st1" d="M332.6,779.4v98.9H181.9v-98.9H332.6z"/>
<path class="st1" d="M181.7,997.1v-98.9h150.8v98.9H181.7L181.7,997.1z"/>
<path class="st1" d="M1091.9,878.4H941.4v-99h150.5V878.4z"/>
<path class="st1" d="M1092.1,898.2V997H941.5v-98.8H1092.1z"/>
<path class="st1" d="M713.8,539H507.6V388.1h206.3V539z"/>
<path class="st1" d="M741.5,538.9V388h206.4v150.8H741.5L741.5,538.9z"/>
<path class="st1" d="M724.8,2.5c15.6,11.7,31.1,23.3,46.5,34.9C866.2,108.6,961,179.9,1056,251c3.8,2.8,5.1,5.7,5,10.3
	c-0.3,15.1-0.1,30.2-0.1,46.4c-2.2-1.4-3.7-2.3-5.1-3.3c-39-29.1-78.2-57.9-117-87.2c-69.4-52.4-138.6-105.1-207.9-157.6
	c-1.3-1-2.7-2-4.1-3C614.9,138.5,506.1,224.2,393,304.2c-0.5-0.4-1.1-0.8-1.6-1.2c0-3.8,0-7.5,0-11.3c0-10,0.2-20-0.1-30
	c-0.1-3.8,1.3-6,4.2-8.3c53.3-40.6,106.5-81.2,159.8-121.8c55.5-42.3,111-84.7,166.5-127C722.7,4,723.5,3.5,724.8,2.5L724.8,2.5z
	 M724.8,16.9c-1.9,1.4-3.4,2.5-4.9,3.6c-68.8,52.9-137.6,105.9-206.4,158.8c-35.4,27.2-70.8,54.4-106.1,81.7c-1.7,1.3-3.9,3.2-4.2,5
	c-0.6,4.5-0.2,9.1-0.2,14.9C511.5,198.4,619,116.5,726.6,34.5c107.8,82.1,215.3,164,323.6,246.6c0-3.8-0.3-6.3,0.1-8.7
	c0.9-5.8-1.5-9.3-6.2-12.8c-89.9-68.1-179.6-136.4-269.4-204.6C758.2,42.3,741.6,29.7,724.8,16.9L724.8,16.9z"/>
<path class="st1" d="M713.9,274.9v98.6H507.6v-98.6H713.9z"/>
<path class="st1" d="M947.8,373.5H741.7v-98.6h206.2V373.5z"/>
<path class="st1" d="M418.3,591.4c0-2.2,0-3.9,0-5.5c0-96.2,0.1-192.3-0.2-288.5c0-6.4,1.2-10.8,7.3-13.5c1.8-0.8,3.3-2.1,5.7-3.7
	v292.8h585.1V278.5c5.5,4.2,10.1,7.6,14.4,11.2c0.6,0.5,0.5,2.2,0.5,3.3c0,98.7,0,197.3,0,296c0,0.7-0.1,1.3-0.2,2.4L418.3,591.4
	L418.3,591.4z"/>
<path class="st0" d="M724.8,16.9c16.8,12.8,33.4,25.4,49.9,38c89.8,68.3,179.5,136.5,269.4,204.6c4.6,3.5,7.1,7,6.2,12.8
	c-0.4,2.4-0.1,4.9-0.1,8.7C941.9,198.5,834.4,116.6,726.6,34.4C619,116.4,511.5,198.3,403.1,281c0-5.8-0.4-10.4,0.2-14.9
	c0.3-1.8,2.5-3.7,4.2-5c35.3-27.3,70.7-54.5,106.1-81.7c68.8-52.9,137.6-105.8,206.4-158.8C721.4,19.4,722.9,18.3,724.8,16.9
	L724.8,16.9z"/>
</svg>
