<?xml version="1.0" encoding="utf-8"?>
<!-- Generator: Adobe Illustrator 23.0.2, SVG Export Plug-In . SVG Version: 6.00 Build 0)  -->
<svg version="1.1" id="Layer_1" xmlns="http://www.w3.org/2000/svg" xmlns:xlink="http://www.w3.org/1999/xlink" x="0px" y="0px"
	 viewBox="0 0 300 300" style="enable-background:new 0 0 300 300;" xml:space="preserve">
<style type="text/css">
	.st0{fill-rule:evenodd;clip-rule:evenodd;fill:#F7931E;}
	.st1{fill-rule:evenodd;clip-rule:evenodd;fill:url(#SVGID_1_);}
	.st2{opacity:0.633;fill-rule:evenodd;clip-rule:evenodd;fill:url(#SVGID_2_);enable-background:new    ;}
</style>
<path class="st0" d="M87.7,68.4c-1.6,0.2-3.1,0.9-4.2,2.1l-51.2,55c-1.2,1.3-1.8,3-1.8,4.7v93.2c0,2.9,1.8,5.5,4.5,6.4l28.2,10.6
	c2,0.7,4.3,0.4,6.1-0.9c1.8-1.2,2.9-3.2,3-5.4l-0.6-92l32.1,0.3L103.4,248c0,2.9,1.9,5.5,4.7,6.4l52.3,18.3c1.3,0.5,2.7,0.5,4.1,0.1
	l115.2-36.6c2.9-0.9,4.8-3.5,4.8-6.6v-84.5c0-1.8-0.7-3.6-2-4.9c-1.3-1.3-3.1-2-4.9-2l-98,2.3L92.8,70.1
	C91.4,68.9,89.6,68.3,87.7,68.4L87.7,68.4z M239.7,173.1c3.4,0,6,2.7,6.1,6.1l0.1,23.8c0,3.4-2.7,6.1-6.1,6.1l-19.9,5
	c-3.4,0-6.2-2.7-6.2-6.1l-0.1-28.4c0-3.4,2.7-6.3,6.1-6.3L239.7,173.1L239.7,173.1z"/>
<linearGradient id="SVGID_1_" gradientUnits="userSpaceOnUse" x1="95.0003" y1="280.8808" x2="145.0945" y2="199.0156" gradientTransform="matrix(1 0 0 -1 0 302)">
	<stop  offset="0" style="stop-color:#868686"/>
	<stop  offset="1" style="stop-color:#181816"/>
</linearGradient>
<path class="st1" d="M87.5,26c-0.7,0.1-1.4,0.4-1.8,1L9.9,111c-1,1.1-0.9,2.8,0.1,3.9l7.5,7.9c0.5,0.5,1.3,0.8,2,0.8
	c0.7,0,1.4-0.4,1.9-0.9l66.5-72.4l86,67.4c0,0.1,0.1,0.2,0.1,0.3l0.3,0.1c0.5,0.4,1.1,0.7,1.7,0.7h0.1h0.1l108.7-0.1
	c2,0.3,2.4-1.6,2.8-2.9l2.2-7.8c0-0.9-0.4-1.8-1.1-2.3l-84.5-62.9c-0.4-0.3-0.9-0.4-1.4-0.4c-0.1-0.1-0.2-0.1-0.3-0.1h-0.1v0.1
	L88.4,26.1c-0.1-0.1-0.3-0.1-0.4-0.1h-0.1C87.7,26,87.6,26,87.5,26L87.5,26z"/>
<linearGradient id="SVGID_2_" gradientUnits="userSpaceOnUse" x1="179.9259" y1="42.0963" x2="175.9097" y2="34.029" gradientTransform="matrix(6.5394 0 0 -6.5394 -1044.0394 312.8594)">
	<stop  offset="0" style="stop-color:#FFFFFF"/>
	<stop  offset="1" style="stop-color:#FFFFFF;stop-opacity:0"/>
</linearGradient>
<path class="st2" d="M87.1,31.7c-0.3,0.1-0.6,0.3-0.8,0.6l-72.7,78.9c-0.6,0.7-0.7,1.7-0.3,2.6l3.6,3.9c0.3,0.6,0.9,1,1.6,1
	c0.7,0.1,1.3-0.1,1.8-0.6L88,47.3l85.3,68c0.7,0.5,1.5,0.6,2.3,0.3s1.2-1.1,1.2-2l-0.2-10.6c0-0.6-0.2-1.3-0.7-1.7L89.2,32.2
	C88.7,31.7,87.9,31.5,87.1,31.7L87.1,31.7z"/>
</svg>
