<?xml version="1.0" encoding="utf-8"?>
<!-- Generator: Adobe Illustrator 23.0.2, SVG Export Plug-In . SVG Version: 6.00 Build 0)  -->
<svg version="1.1" id="Layer_1" xmlns="http://www.w3.org/2000/svg" xmlns:xlink="http://www.w3.org/1999/xlink" x="0px" y="0px"
	 viewBox="0 0 500 500" style="enable-background:new 0 0 500 500;" xml:space="preserve">
<style type="text/css">
	.st0{fill:#385369;}
</style>
<g transform="translate(0 -552.36)">
	<path class="st0" d="M269.7,630.6c-94.9-10.9-180.6,57.2-191.5,152.1c-10.9,94.9,57.2,180.6,152.1,191.5S410.9,917,421.8,822.1
		C432.7,727.2,364.6,641.5,269.7,630.6L269.7,630.6z M268,646c86.4,9.9,148.3,88,138.4,174.3c-9.9,86.4-88,148.3-174.3,138.4
		c-86.4-9.9-148.3-88-138.4-174.3C103.6,698.1,181.6,636.1,268,646z"/>
	<path shape-rendering="auto" color-rendering="auto" image-rendering="auto" class="st0" d="M286.4,703.6c-16,0-32,6.1-44.2,18.2
		c-23.4,23.4-24.3,61-2.6,85.5l-6.2,6.2l-1.6-1.6c-1.3-1.3-3.3-1.3-4.6,0l-62.6,62.6c-1.3,1.3-1.3,3.3,0,4.6l8.6,8.6
		c1.3,1.3,3.3,1.3,4.6,0l62.6-62.6c1.3-1.3,1.3-3.3,0-4.6l-1.6-1.6l6.2-6.2c24.5,21.6,62.1,20.8,85.5-2.6c24.3-24.3,24.3-64,0-88.3
		C318.4,709.7,302.4,703.6,286.4,703.6L286.4,703.6z M286.4,719.7c11.8,0,23.7,4.5,32.7,13.6c18.1,18.1,18.1,47.3,0,65.4
		c-18.1,18.1-47.3,18.1-65.4,0c-18.1-18.1-18.1-47.3,0-65.4C262.7,724.2,274.5,719.7,286.4,719.7L286.4,719.7z"/>
</g>
</svg>
