<?xml version="1.0" encoding="utf-8"?>
<!-- Generator: Adobe Illustrator 23.0.2, SVG Export Plug-In . SVG Version: 6.00 Build 0)  -->
<svg version="1.1" id="Layer_1" xmlns="http://www.w3.org/2000/svg" xmlns:xlink="http://www.w3.org/1999/xlink" x="0px" y="0px"
	 viewBox="0 0 512 512" style="enable-background:new 0 0 512 512;" xml:space="preserve">
<style type="text/css">
	.st0{fill:#F7931E;stroke:#000000;stroke-width:2;}
</style>
<path class="st0" d="M287,120.9c-10.4-1-20.9-2.6-31.3-2.8c-27.2-0.7-53.8,4.5-80.6,8.6c-9.6,1.5-14.2,5.7-18.5,14
	c-14.8,28.4-30.9,56.1-46.5,84c-1,1.9-2.3,4.3-2,6.2c1.5,8.8,3.6,17.4,5.6,26.9c2.6-2,4.6-3.5,6.6-4.9c11.2-8.3,25.1-6.6,32.1,4
	c5.1,7.6,4.5,16.2-1.7,22.9c-12.9,14-25.9,28-39,41.9c-6.3,6.7-17,7.9-25.2,3.1c-7.7-4.5-11.3-13.4-8.5-22.5c1.2-3.9,3.2-7.7,5.7-11
	c4.6-6.1,9.9-11.7,14.7-17.7c1.2-1.5,2.1-4.1,1.8-5.9c-1.2-6.6-2.9-13.1-4.6-19.6c-0.3-1.2-1.5-2.7-2.7-3.2
	c-4.5-1.8-9.5-2.8-13.7-5.1c-9-4.9-17.6-10.5-26.4-15.8c-2.5-1.5-5-2.8-7.7-3.9c-6.8-2.8-8.6-5.8-5.9-12.6
	c3.1-7.7,6.6-15.3,10.3-22.7c14.9-30,31.4-59.1,50-87c3.1-4.6,6.7-9,10.6-13.1c6.2-6.6,11.4-7.3,18.6-1.7c9.7,7.5,19.1,15.6,28.1,24
	c4.4,4.1,8.1,6,14.7,4.7c26.2-5.3,52.7-9.6,79.5-9.7c22.5-0.1,44.8,2.3,64.6,15c4.9,3.2,9.9,1.1,13.4-3.4c10.9-14,21.9-28,33.4-41.6
	c4.6-5.5,8.6-5.3,14.1-0.6c31.6,27.2,63.1,54.4,94.6,81.6c4.4,3.8,4.6,7.9,0.4,12.5c-8.2,9-16.5,18-24.9,26.8c-4,4.2-7.3,8-8.3,14.4
	c-2.3,15.4-6.7,30.3-17.1,43.1c3,2.4,5.3,4.9,8.1,6.6c11.4,7.1,13.1,17.7,10.3,29.4c-3.9,16.4-14.3,26.9-30.6,31.2
	c-3,0.8-4,2.1-4.5,5.4c-2.7,18.4-10.1,33.9-28.1,42.3c-1.6,0.7-2.7,3.6-2.9,5.6c-0.8,9.9-3,19.3-9.6,27.2c-5.7,6.8-13.1,11-22,11.4
	c-4.3,0.2-5.6,2-6.6,5.7c-4.4,16.6-22.7,30.8-39.8,30c-5.6-0.3-11.8-2.6-16.4-5.8c-18.1-12.7-35.6-26.1-53.4-39.3
	c-0.4-0.3-0.8-0.5-1.7-1c-3.5,3.8-6.9,7.8-10.6,11.5c-10.4,10.5-26.9,7.7-33.3-5.6c-3-6.2-2.9-12.2,2.1-17.8
	c12.4-14.1,24.9-28.1,36.6-42.7c7.5-9.3,20.3-8.2,26.7-3.3c8.2,6.2,10.8,18.5,4.9,27.1c-3.4,5-7.9,9.2-11.9,13.8
	c-1.2,1.4-2.5,2.8-4.1,4.6c5.2,4.1,9.9,8.1,14.9,11.8c13.1,9.5,26.3,18.8,39.5,28.3c4.2,3,8.5,3.4,13.2,1.5
	c8.8-3.4,16.2-8.3,19.1-18.1c0.8-2.9,0.4-5-1.8-6.8c-16.8-13.6-33.6-27.1-50.5-40.6c-3.6-2.8-7.3-5.3-6.9-10.7
	c0.4-4.6,3.4-7.4,7.8-6.1c3.9,1.1,7.9,2.9,11.1,5.4c14.3,11.4,28.3,23.1,42.4,34.7c1.4,1.1,2.6,2.3,4,3.4c10.8,8.6,25.4,3.7,29-9.7
	c0.3-1.2,0.6-2.5,0.8-3.7c1.7-7.7,0.6-13.8-6.6-19.1c-15.9-11.7-31.1-24.2-46.4-36.6c-2.2-1.8-4.7-4-5.4-6.5s-0.3-6.5,1.4-8.2
	c1.6-1.6,5.4-1.6,8.2-1.5c1.7,0.1,3.3,1.8,4.8,3c16,12.8,32,25.7,48,38.5c8.2,6.6,11.6,6.3,18.3-1.9c5.6-6.8,9.7-14.4,9.8-23.4
	c0-2.4-1.3-5.4-3.1-7c-14-12-28.2-23.7-42.2-35.7c-2.8-2.3-5.3-5.1-7.3-8.1c-2-2.9-1.5-6.7,1.4-8.6c2.2-1.4,5.9-2.2,8.3-1.3
	c3.5,1.3,6.5,4,9.4,6.5c12.8,10.9,25.6,21.9,38.1,33.1c4.6,4.1,9.2,5.3,14.3,2.1c4.3-2.7,8.9-5.4,12-9.2c7.5-9,6.3-17.4-2.4-25
	c-35.2-30.9-70.3-61.8-105.6-92.4c-2.1-1.8-5.8-2.9-8.6-2.5c-15.4,2-30.8,4.2-46,6.9c-4.9,0.9-9.6,3.4-14.4,5.3
	c-14.3,5.8-27.4,3.2-39.4-5.6c-8.1-5.9-9-13.8-1.8-20.9c6.7-6.6,14.9-11.7,21.7-18.2c9.1-8.7,20-11.9,32.2-12.8
	c10.5-0.8,20.9-2.7,31.4-4.1C287,122,287,121.5,287,120.9L287,120.9z M121.2,95.7C94.6,131.2,75.1,169.3,56,207.8
	c11.9,6.9,23,13.4,34.5,20.1c17.8-32.4,35.3-64.2,52.7-96c1.8-3.3,5.5-7.1,4.9-10c-0.6-3.2-5.1-5.7-8-8.4
	C134.3,107.8,128.2,102.2,121.2,95.7z M455.2,159.8c-3.4-2.8-6.4-5.2-9.2-7.7c-12.4-11.1-24.6-22.4-37.3-33.3
	c-11.5-9.9-23.5-19.4-35.3-28.9c-1.1-0.9-4-1.3-4.6-0.7c-8,9.3-15.8,18.8-23.9,28.5c28.3,23.4,56.3,46.6,84.6,70
	C438.2,178.4,446.6,169.3,455.2,159.8L455.2,159.8z"/>
<path class="st0" d="M202.5,309.5c10.5,0,19.1,7.6,19.3,17.8c0.1,3.3-1.2,7.4-3.3,10c-14.8,17.7-29.9,35.1-44.9,52.6
	c-8.6,10-19.2,11.7-28.2,4.7c-9.5-7.5-11.1-20.2-2.9-30.2c10.5-12.7,21.7-24.8,32.6-37.2c3-3.4,5.9-6.8,9-10
	C189.8,311.4,194.5,309.5,202.5,309.5L202.5,309.5z"/>
<path class="st0" d="M127.7,367.5c-16.3-1.1-25.9-17.6-17.7-32.1c4.7-8.4,11.3-15.9,17.7-23.2c8.2-9.4,16.9-18.4,25.5-27.5
	c5.7-6,16.7-7.7,24-3.8c7.5,4,12,13.8,9.7,22.1c-0.6,2.1-1.8,4.1-3.3,5.8c-15.9,18.2-31.8,36.4-47.9,54.4
	C133.7,365.3,130.4,366.1,127.7,367.5L127.7,367.5z"/>
</svg>
